# xmcd
# 
# Track frame offsets:
#     150
#     20010
#     45647
#     68315
# 
# Disc length: 1173
# 
# Revision: 0
# Processed by: cddbd v1.5.2PL0 Copyright (c) Steve Scherf et al.
# Submitted via: BonkEnc v1.0
# 
DISCID=28049304
DTITLE=INVOICE - single
DYEAR=0
DGENRE=
TTITLE0=永遠の大陸
TTITLE1=AURA(SL9 MIX)
TTITLE2=History
TTITLE3=永遠の大陸(オリジナルカラオケ)
EXTD=
EXTT0=
EXTT1=
EXTT2=
EXTT3=
PLAYORDER=
